<svg xmlns="http://www.w3.org/2000/svg" fill="none" viewBox="0 0 128 128">
  <path d="M50.4 78.5a75.1 75.1 0 0 0-28.5 6.9l24.2-65.7c.7-2 1.9-3.2 3.4-3.2h29.3c1.5 0 2.7 1.2 3.4 3.2l24.2 65.7s-13.1-7-28.5-6.9l-11.2-32.1c-.4-1.3-1.4-1.9-2.3-1.9-1 0-1.9.7-2.3 1.9L50.4 78.5Zm-1.8 28.2c0-6.1 4.9-11 11-11h8.8c6.1 0 11 4.9 11 11v6.7H48.6v-6.7Z" fill="url(#gradient)" />
  <defs>
    <linearGradient id="gradient" x1="0" x2="128" y1="0" y2="128" gradientUnits="userSpaceOnUse">
      <stop stop-color="#D83333" />
      <stop offset="1" stop-color="#F041FF" />
    </linearGradient>
  </defs>
</svg>
